<mxfile host="app.diagrams.net" modified="2023-07-14T08:22:21.318Z" agent="Mozilla/5.0 (Macintosh; Intel Mac OS X 10_15_7) AppleWebKit/605.1.15 (KHTML, like Gecko) Version/15.6.1 Safari/605.1.15" etag="FRwSNca1rxKU0W3YtaSQ" version="21.5.2" type="github">
  <diagram name="Page-1" id="798R0qPvxFSlvrYoFzA3">
    <mxGraphModel dx="662" dy="470" grid="1" gridSize="10" guides="1" tooltips="1" connect="1" arrows="1" fold="1" page="1" pageScale="1" pageWidth="827" pageHeight="1169" math="0" shadow="0">
      <root>
        <mxCell id="0" />
        <mxCell id="1" parent="0" />
        <mxCell id="wjV53K5Zg1uU1590NxvN-2" value="" style="rounded=0;whiteSpace=wrap;html=1;" vertex="1" parent="1">
          <mxGeometry x="260" y="40" width="280" height="440" as="geometry" />
        </mxCell>
        <mxCell id="wjV53K5Zg1uU1590NxvN-4" value="&lt;h1 style=&quot;font-size: 11px;&quot;&gt;Computer Based Test&lt;/h1&gt;&lt;p style=&quot;font-size: 11px;&quot;&gt;Use Case Diagram App&lt;/p&gt;" style="text;html=1;strokeColor=none;fillColor=none;spacing=5;spacingTop=-20;whiteSpace=wrap;overflow=hidden;rounded=0;fontSize=11;" vertex="1" parent="1">
          <mxGeometry x="260" y="50" width="90" height="70" as="geometry" />
        </mxCell>
        <mxCell id="wjV53K5Zg1uU1590NxvN-15" style="rounded=0;orthogonalLoop=1;jettySize=auto;html=1;entryX=0.75;entryY=1;entryDx=0;entryDy=0;strokeColor=default;" edge="1" parent="1" source="wjV53K5Zg1uU1590NxvN-5" target="wjV53K5Zg1uU1590NxvN-4">
          <mxGeometry relative="1" as="geometry" />
        </mxCell>
        <mxCell id="wjV53K5Zg1uU1590NxvN-18" style="rounded=0;orthogonalLoop=1;jettySize=auto;html=1;entryX=0;entryY=0.5;entryDx=0;entryDy=0;" edge="1" parent="1" source="wjV53K5Zg1uU1590NxvN-5" target="wjV53K5Zg1uU1590NxvN-13">
          <mxGeometry relative="1" as="geometry" />
        </mxCell>
        <mxCell id="wjV53K5Zg1uU1590NxvN-5" value="Administrator" style="shape=umlActor;verticalLabelPosition=bottom;verticalAlign=top;html=1;outlineConnect=0;" vertex="1" parent="1">
          <mxGeometry x="120" y="230" width="30" height="60" as="geometry" />
        </mxCell>
        <mxCell id="wjV53K5Zg1uU1590NxvN-16" style="rounded=0;orthogonalLoop=1;jettySize=auto;html=1;entryX=1;entryY=0.5;entryDx=0;entryDy=0;" edge="1" parent="1" source="wjV53K5Zg1uU1590NxvN-6" target="wjV53K5Zg1uU1590NxvN-10">
          <mxGeometry relative="1" as="geometry" />
        </mxCell>
        <mxCell id="wjV53K5Zg1uU1590NxvN-17" style="rounded=0;orthogonalLoop=1;jettySize=auto;html=1;entryX=1;entryY=0.5;entryDx=0;entryDy=0;" edge="1" parent="1" source="wjV53K5Zg1uU1590NxvN-6" target="wjV53K5Zg1uU1590NxvN-12">
          <mxGeometry relative="1" as="geometry" />
        </mxCell>
        <mxCell id="wjV53K5Zg1uU1590NxvN-19" style="rounded=0;orthogonalLoop=1;jettySize=auto;html=1;entryX=1;entryY=0.5;entryDx=0;entryDy=0;" edge="1" parent="1" source="wjV53K5Zg1uU1590NxvN-6" target="wjV53K5Zg1uU1590NxvN-13">
          <mxGeometry relative="1" as="geometry" />
        </mxCell>
        <mxCell id="wjV53K5Zg1uU1590NxvN-6" value="Guru" style="shape=umlActor;verticalLabelPosition=bottom;verticalAlign=top;html=1;outlineConnect=0;" vertex="1" parent="1">
          <mxGeometry x="650" y="90" width="30" height="60" as="geometry" />
        </mxCell>
        <mxCell id="wjV53K5Zg1uU1590NxvN-20" style="rounded=0;orthogonalLoop=1;jettySize=auto;html=1;entryX=1;entryY=0.5;entryDx=0;entryDy=0;" edge="1" parent="1" source="wjV53K5Zg1uU1590NxvN-7" target="wjV53K5Zg1uU1590NxvN-14">
          <mxGeometry relative="1" as="geometry" />
        </mxCell>
        <mxCell id="wjV53K5Zg1uU1590NxvN-7" value="Pengawas" style="shape=umlActor;verticalLabelPosition=bottom;verticalAlign=top;html=1;outlineConnect=0;" vertex="1" parent="1">
          <mxGeometry x="650" y="230" width="30" height="60" as="geometry" />
        </mxCell>
        <mxCell id="wjV53K5Zg1uU1590NxvN-21" style="rounded=0;orthogonalLoop=1;jettySize=auto;html=1;entryX=1;entryY=0.5;entryDx=0;entryDy=0;" edge="1" parent="1" source="wjV53K5Zg1uU1590NxvN-8" target="wjV53K5Zg1uU1590NxvN-11">
          <mxGeometry relative="1" as="geometry" />
        </mxCell>
        <mxCell id="wjV53K5Zg1uU1590NxvN-8" value="Siswa" style="shape=umlActor;verticalLabelPosition=bottom;verticalAlign=top;html=1;outlineConnect=0;" vertex="1" parent="1">
          <mxGeometry x="650" y="370" width="30" height="60" as="geometry" />
        </mxCell>
        <mxCell id="wjV53K5Zg1uU1590NxvN-9" value="Manajemen Pengguna" style="ellipse;whiteSpace=wrap;html=1;" vertex="1" parent="1">
          <mxGeometry x="330" y="100" width="140" height="40" as="geometry" />
        </mxCell>
        <mxCell id="wjV53K5Zg1uU1590NxvN-10" value="Pembuatan Ujian&amp;nbsp;" style="ellipse;whiteSpace=wrap;html=1;" vertex="1" parent="1">
          <mxGeometry x="330" y="160" width="140" height="40" as="geometry" />
        </mxCell>
        <mxCell id="wjV53K5Zg1uU1590NxvN-11" value="Pelaksanaan Ujian" style="ellipse;whiteSpace=wrap;html=1;" vertex="1" parent="1">
          <mxGeometry x="330" y="220" width="140" height="40" as="geometry" />
        </mxCell>
        <mxCell id="wjV53K5Zg1uU1590NxvN-12" value="Penilaian Ujian&amp;nbsp;" style="ellipse;whiteSpace=wrap;html=1;" vertex="1" parent="1">
          <mxGeometry x="330" y="280" width="140" height="40" as="geometry" />
        </mxCell>
        <mxCell id="wjV53K5Zg1uU1590NxvN-13" value="Pelaporan dan AnÃ¡lisis" style="ellipse;whiteSpace=wrap;html=1;" vertex="1" parent="1">
          <mxGeometry x="330" y="340" width="140" height="40" as="geometry" />
        </mxCell>
        <mxCell id="wjV53K5Zg1uU1590NxvN-14" value="Pengawasan Ujian" style="ellipse;whiteSpace=wrap;html=1;" vertex="1" parent="1">
          <mxGeometry x="330" y="400" width="140" height="40" as="geometry" />
        </mxCell>
      </root>
    </mxGraphModel>
  </diagram>
</mxfile>
